<?xml version="1.0" encoding="UTF-8"?>
<svg width="260px" height="86px" viewBox="0 0 260 86" version="1.1" xmlns="http://www.w3.org/2000/svg" xmlns:xlink="http://www.w3.org/1999/xlink">
    <!-- Generator: Sketch 64 (93537) - https://sketch.com -->
    <title>Gowarehouse-AI-h</title>
    <desc>Created with Sketch.</desc>
    <g id="Gowarehouse-AI-h" stroke="none" stroke-width="1" fill="none" fill-rule="evenodd">
        <g id="Group-2" transform="translate(15.000000, 20.000000)">
            <g id="Group-5" transform="translate(46.000000, 5.000000)" fill="#008ED8">
                <path d="M25.4493,15.6897 C25.4493,14.3737 24.7813,13.7117 23.4463,13.7017 L23.4143,13.7017 C22.0893,13.7017 21.4273,14.3647 21.4273,15.6897 L21.4273,28.5267 C21.4273,29.8527 22.0953,30.5147 23.4303,30.5147 C24.7763,30.5147 25.4493,29.8527 25.4493,28.5267 L25.4493,15.6897 Z M30.0573,28.5267 C30.0573,32.6327 27.8483,34.6907 23.4303,34.7007 C19.0233,34.7007 16.8193,32.6437 16.8193,28.5267 L16.8193,15.6897 C16.8193,11.5837 19.0233,9.5307 23.4303,9.5307 C27.8483,9.5307 30.0573,11.5837 30.0573,15.6897 L30.0573,28.5267 Z" id="Fill-107"></path>
                <path d="M78.5138,15.6897 C78.5138,11.5837 80.7178,9.5307 85.1248,9.5307 L85.1898,9.5307 L85.1898,13.7017 L85.1078,13.7017 C83.7838,13.7017 83.1218,14.3647 83.1218,15.6897 L83.1218,34.7007 L78.5138,34.7007 L78.5138,15.6897 Z" id="Fill-109"></path>
                <path d="M129.1847,15.6897 C129.1847,14.3737 128.5167,13.7117 127.1817,13.7017 L127.1497,13.7017 C125.8247,13.7017 125.1627,14.3647 125.1627,15.6897 L125.1627,28.5267 C125.1627,29.8527 125.8307,30.5147 127.1657,30.5147 C128.5117,30.5147 129.1847,29.8527 129.1847,28.5267 L129.1847,15.6897 Z M133.7927,28.5267 C133.7927,32.6327 131.5837,34.6907 127.1657,34.7007 C122.7587,34.7007 120.5547,32.6437 120.5547,28.5267 L120.5547,15.6897 C120.5547,11.5837 122.7587,9.5307 127.1657,9.5307 C131.5837,9.5307 133.7927,11.5837 133.7927,15.6897 L133.7927,28.5267 Z" id="Fill-111"></path>
                <path d="M103.7246,0.5 C103.7266,0.5 103.7286,0.5 103.7296,0.5 L103.7246,0.5 Z" id="Fill-113"></path>
                <path d="M9.223,20.0152 L6.301,20.0152 L6.301,24.2012 L8.63,24.2012 L8.63,28.5272 C8.63,29.8522 7.956,30.5152 6.611,30.5152 C5.275,30.5152 4.608,29.8522 4.608,28.5272 L4.608,15.6892 C4.608,14.3642 5.27,13.7012 6.594,13.7012 L6.627,13.7012 C7.842,13.7102 8.498,14.2662 8.607,15.3562 L8.607,15.1872 C8.607,16.4222 9.257,17.0542 10.553,17.0852 L11.29,17.0852 C12.531,17.0552 13.173,16.4682 13.225,15.3342 C13.098,11.4692 10.897,9.5302 6.611,9.5302 C2.203,9.5302 2.84217094e-14,11.5832 2.84217094e-14,15.6892 L2.84217094e-14,28.5272 C2.84217094e-14,32.6432 2.203,34.7012 6.611,34.7012 C11.029,34.6912 13.238,32.6332 13.238,28.5272 L13.238,24.0662 C13.224,21.4852 11.881,20.1392 9.223,20.0152" id="Fill-115"></path>
                <path d="M137.3748,9.4877 C137.3768,9.4877 137.3788,9.4877 137.3798,9.4877 L137.3748,9.4877 Z" id="Fill-117"></path>
                <path d="M145.9893,9.4877 C145.9913,9.4877 145.9933,9.4877 145.9943,9.4877 L145.9893,9.4877 Z" id="Fill-119"></path>
                <path d="M146.3972,9.4876 L146.0042,9.4836 L146.0042,28.5266 C146.0042,29.8526 145.3312,30.5146 143.9852,30.5146 C142.6502,30.5146 141.9832,29.8526 141.9832,28.5266 L141.9832,13.0896 C141.8132,10.7456 140.4112,9.5466 137.7822,9.4876 L137.3752,9.4836 L137.3752,28.5266 C137.3752,32.6436 139.5782,34.7016 143.9852,34.7016 C148.4032,34.6906 150.6122,32.6326 150.6122,28.5266 L150.6122,13.5076 C150.5832,10.8886 149.1772,9.5496 146.3972,9.4876" id="Fill-121"></path>
                <path d="M175.6222,15.6897 C175.6222,14.3647 176.2842,13.7017 177.6082,13.7017 L177.6412,13.7017 C178.9762,13.7117 179.6442,14.3737 179.6442,15.6897 L179.6442,20.0157 L175.6222,20.0157 L175.6222,15.6897 Z M180.4162,24.2007 C182.8452,24.0377 184.1262,22.8067 184.2522,20.5037 L184.2522,15.6897 C184.2522,11.5837 182.0432,9.5307 177.6252,9.5307 C173.2182,9.5307 171.0142,11.5837 171.0142,15.6897 L171.0142,28.5267 C171.0142,32.6427 173.2182,34.7007 177.6252,34.7007 C182.0022,34.6907 184.2082,32.6677 184.2482,28.6367 C184.1172,27.6617 183.4762,27.1607 182.3242,27.1347 L181.5762,27.1347 C180.2762,27.1637 179.6242,27.7957 179.6242,29.0327 L179.6242,28.8157 C179.5282,29.9437 178.8672,30.5147 177.6252,30.5147 C176.2902,30.5147 175.6222,29.8527 175.6222,28.5267 L175.6222,24.2007 L180.4162,24.2007 Z" id="Fill-123"></path>
                <path d="M179.6496,24.2206 C179.6516,24.2206 179.6536,24.2206 179.6546,24.2206 L179.6496,24.2206 Z" id="Fill-125"></path>
                <path d="M111.909,9.5303 C110.444,9.5303 109.255,9.8443 108.343,10.4723 L108.343,4.3903 C108.269,1.8583 106.865,0.5613 104.132,0.4993 L103.735,0.4853 L103.735,34.6903 L106.401,34.6903 C107.647,34.6623 108.291,34.0753 108.343,32.9373 L108.343,15.6893 C108.354,14.3743 109.021,13.7163 110.346,13.7163 C111.692,13.7163 112.365,14.3793 112.365,15.7043 L112.365,34.6903 L115.042,34.6903 C116.228,34.6643 116.868,34.1303 116.973,33.0993 L116.973,15.6623 C116.973,11.5983 115.285,9.5403 111.909,9.5303" id="Fill-127"></path>
                <path d="M163.1173,20.5983 C160.2403,18.7053 158.8023,17.1053 158.8023,15.7993 L158.8023,15.6893 C158.8023,14.3643 159.4643,13.7013 160.7893,13.7013 L160.8213,13.7013 C162.0723,13.7103 162.7293,14.3003 162.8083,15.4563 L162.8083,15.1943 C162.8083,16.4013 163.4333,17.0273 164.6703,17.0853 L165.5693,17.0853 C166.7483,17.0303 167.3643,16.4533 167.4203,15.3543 C167.3003,11.4763 165.0993,9.5303 160.8053,9.5303 C156.3983,9.5303 154.1943,11.5833 154.1943,15.6893 L154.1943,15.8893 C154.1943,18.5903 155.6333,20.8823 158.5093,22.7663 C161.3863,24.6593 162.8243,26.3143 162.8243,27.7293 L162.8243,28.5263 C162.8243,29.8523 162.1563,30.5153 160.8213,30.5153 C159.5663,30.5153 158.9043,29.9313 158.8193,28.7783 L158.8193,29.0303 C158.8193,27.7923 158.1673,27.1603 156.8673,27.1313 L156.1363,27.1313 C154.9343,27.1583 154.2943,27.7073 154.2033,28.7663 C154.2903,32.7093 156.4923,34.6913 160.8213,34.7013 C165.2283,34.7013 167.4323,32.6433 167.4323,28.5263 L167.4323,27.3703 C167.4323,24.7393 165.9943,22.4823 163.1173,20.5983" id="Fill-129"></path>
                <path d="M167.4317,15.6789 L167.4317,15.6899 C167.4317,15.6859 167.4317,15.6829 167.4317,15.6789" id="Fill-131"></path>
                <path d="M95.5452,20.0152 L91.5232,20.0152 L91.5232,15.6892 C91.5232,14.3642 92.1852,13.7012 93.5102,13.7012 L93.5422,13.7012 C94.8772,13.7112 95.5452,14.3742 95.5452,15.6892 L95.5452,20.0152 Z M100.1522,20.1002 L100.1532,15.6892 C100.1532,11.5832 97.9442,9.5302 93.5262,9.5302 C89.1192,9.5302 86.9152,11.5832 86.9152,15.6892 L86.9152,28.5272 C86.9152,32.6432 89.1192,34.7012 93.5262,34.7012 C97.8222,34.6912 100.0232,32.7392 100.1412,28.8562 C100.0882,27.7852 99.4992,27.2112 98.3792,27.1312 L97.3162,27.1312 C96.1402,27.2152 95.5432,27.8372 95.5432,29.0142 L95.5432,28.5522 C95.5342,29.8592 94.8632,30.5152 93.5262,30.5152 C92.1912,30.5152 91.5232,29.8522 91.5232,28.5272 L91.5232,24.2012 L95.9562,24.2012 C98.7502,24.1312 100.1522,22.7672 100.1522,20.1002 L100.1522,20.1002 Z" id="Fill-133"></path>
                <path d="M57.1174,9.4634 C55.1834,9.5074 54.0664,10.4294 53.7584,12.2234 L51.4854,28.0054 L49.2184,12.2714 C48.9274,10.4734 47.8314,9.5414 45.9354,9.4704 C44.0874,9.5404 43.0044,10.4324 42.6814,12.1434 L40.3964,28.0054 L38.0554,11.7514 C37.6394,10.2674 36.5554,9.5034 34.7984,9.4634 L33.0864,9.4634 L33.9974,15.7764 L36.7064,31.5424 C37.0144,33.5924 38.2444,34.6514 40.3814,34.7334 L40.3934,34.7334 C42.5384,34.6504 43.7694,33.5864 44.0734,31.5224 L44.0374,31.7674 L45.9484,19.5884 L47.9224,32.0764 C48.3564,33.7724 49.5414,34.6584 51.4814,34.7334 L51.4944,34.7334 C53.6384,34.6504 54.8704,33.5864 55.1734,31.5224 L57.9004,15.8064 L58.8134,9.4634 L57.1174,9.4634 Z" id="Fill-135"></path>
                <path d="M70.3237,28.5268 C70.3237,29.8528 69.6557,30.5148 68.3207,30.5148 C66.9747,30.5148 66.3017,29.8528 66.3017,28.5268 L66.3017,26.1598 C66.3017,24.8348 66.9747,24.1718 68.3207,24.1718 C69.6457,24.1718 70.3127,24.8288 70.3237,26.1448 L70.3237,28.5268 Z M68.3207,9.5308 C64.0357,9.5308 61.8357,11.4678 61.7067,15.3298 C61.7597,16.4658 62.4037,17.0518 63.6487,17.0798 L64.3727,17.0798 C65.6727,17.0508 66.3247,16.4188 66.3247,15.1818 L66.3247,15.3548 C66.4347,14.2658 67.0907,13.7108 68.3047,13.7018 L68.3377,13.7018 C69.6617,13.7018 70.3237,14.3648 70.3237,15.6898 L70.3237,19.7478 C69.7237,19.6398 69.0687,19.5828 68.3517,19.5828 C66.5677,19.5828 65.1477,19.9218 64.0867,20.5948 C62.4917,21.4818 61.6937,23.3368 61.6937,26.1598 L61.6937,28.5268 C61.6937,32.6328 63.9027,34.6908 68.3207,34.7008 C72.7277,34.7008 74.9317,32.6428 74.9317,28.5268 L74.9317,15.6898 C74.9317,11.5838 72.7277,9.5308 68.3207,9.5308 L68.3207,9.5308 Z" id="Fill-137"></path>
            </g>
            <g id="Group">
                <path d="M13.7823979,39.1631417 L27.8459894,39.1631417 L27.8459894,23.8469938 L13.7823979,23.8469938 L13.7823979,39.1631417 Z M6.75,46.125 L34.875,46.125 L34.875,16.875 L6.75,16.875 L6.75,46.125 Z" id="Fill-7" fill="#FCCC27"></path>
                <polyline id="Fill-8" fill="#1DA452" points="28.125 16.875 13.8757628 16.875 13.8757628 23.9062312 21.0015256 23.9062312 21.0015256 32.3437688 6.75 32.3437688 6.75 39.375 28.125 39.375"></polyline>
                <polygon id="Fill-9" fill="#008ED8" points="7.13435597 17.8317985 7.12444068 17.8317985 7.12444068 10.3053664 21.375 10.3053664 21.375 3.375 0 3.375 0 39.375 7.13435597 39.375"></polygon>
                <path d="M29.8125,0 C28.7919702,3.10568969 26.5135949,5.58474234 23.625,6.75 C26.5135949,7.91518086 28.7919702,10.3942335 29.8125,13.5 C30.8330298,10.3942335 33.1113327,7.91518086 36,6.75 C33.1113327,5.58474234 30.8330298,3.10568969 29.8125,0" id="Fill-10" fill="#FCCC27"></path>
                <polygon id="Fill-12" fill="#1DA452" points="6.75 39.375 28.125 39.375 28.125 32.625 6.75 32.625"></polygon>
            </g>
        </g>
    </g>
</svg>