<?xml version="1.0" encoding="UTF-8"?>
<svg width="200px" height="128px" viewBox="0 0 200 128" version="1.1" xmlns="http://www.w3.org/2000/svg" xmlns:xlink="http://www.w3.org/1999/xlink">
    <!-- Generator: Sketch 64 (93537) - https://sketch.com -->
    <title>Gowarehouse-AI-v</title>
    <desc>Created with Sketch.</desc>
    <g id="Gowarehouse-AI-v" stroke="none" stroke-width="1" fill="none" fill-rule="evenodd">
        <g id="Group-3" transform="translate(15.000000, 20.000000)">
            <g id="Group-4" transform="translate(0.000000, 55.000000)" fill="#008CC6">
                <path d="M23.4922,14.5213 C23.4922,13.3073 22.8762,12.6953 21.6432,12.6863 L21.6132,12.6863 C20.3912,12.6863 19.7802,13.2983 19.7802,14.5213 L19.7802,26.3713 C19.7802,27.5943 20.3962,28.2063 21.6282,28.2063 C22.8712,28.2063 23.4922,27.5943 23.4922,26.3713 L23.4922,14.5213 Z M27.7452,26.3713 C27.7452,30.1613 25.7062,32.0613 21.6282,32.0703 C17.5602,32.0703 15.5262,30.1703 15.5262,26.3713 L15.5262,14.5213 C15.5262,10.7313 17.5602,8.8353 21.6282,8.8353 C25.7062,8.8353 27.7452,10.7313 27.7452,14.5213 L27.7452,26.3713 Z" id="Fill-144"></path>
                <path d="M72.4748,14.5213 C72.4748,10.7313 74.5088,8.8353 78.5768,8.8353 L78.6368,8.8353 L78.6368,12.6863 L78.5618,12.6863 C77.3388,12.6863 76.7278,13.2983 76.7278,14.5213 L76.7278,32.0703 L72.4748,32.0703 L72.4748,14.5213 Z" id="Fill-145"></path>
                <path d="M119.2479,14.5213 C119.2479,13.3073 118.6319,12.6953 117.3989,12.6863 L117.3689,12.6863 C116.1469,12.6863 115.5359,13.2983 115.5359,14.5213 L115.5359,26.3713 C115.5359,27.5943 116.1519,28.2063 117.3839,28.2063 C118.6269,28.2063 119.2479,27.5943 119.2479,26.3713 L119.2479,14.5213 Z M123.5009,26.3713 C123.5009,30.1613 121.4619,32.0613 117.3839,32.0703 C113.3159,32.0703 111.2819,30.1703 111.2819,26.3713 L111.2819,14.5213 C111.2819,10.7313 113.3159,8.8353 117.3839,8.8353 C121.4619,8.8353 123.5009,10.7313 123.5009,14.5213 L123.5009,26.3713 Z" id="Fill-146"></path>
                <path d="M95.7462,0.5 L95.7512,0.5 L95.7462,0.5 Z" id="Fill-147"></path>
                <path d="M8.514,18.514 L5.817,18.514 L5.817,22.378 L7.966,22.378 L7.966,26.371 C7.966,27.594 7.345,28.206 6.103,28.206 C4.87,28.206 4.254,27.594 4.254,26.371 L4.254,14.521 C4.254,13.298 4.865,12.686 6.088,12.686 L6.118,12.686 C7.239,12.694 7.844,13.207 7.945,14.213 L7.945,14.057 C7.945,15.198 8.545,15.78 9.742,15.809 L10.422,15.809 C11.567,15.782 12.16,15.24 12.208,14.193 C12.091,10.625 10.059,8.836 6.103,8.836 C2.034,8.836 0,10.731 0,14.521 L0,26.371 C0,30.171 2.034,32.07 6.103,32.07 C10.181,32.061 12.22,30.161 12.22,26.371 L12.22,22.253 C12.207,19.871 10.968,18.628 8.514,18.514" id="Fill-148"></path>
                <path d="M126.808,8.7964 L126.813,8.7964 L126.808,8.7964 Z" id="Fill-149"></path>
                <path d="M134.7599,8.7964 L134.7649,8.7964 L134.7599,8.7964 Z" id="Fill-150"></path>
                <path d="M135.1363,8.7962 L134.7733,8.7922 L134.7733,26.3712 C134.7733,27.5942 134.1523,28.2062 132.9103,28.2062 C131.6773,28.2062 131.0613,27.5942 131.0613,26.3712 L131.0613,12.1212 C130.9053,9.9572 129.6113,8.8502 127.1843,8.7962 L126.8083,8.7922 L126.8083,26.3712 C126.8083,30.1702 128.8423,32.0702 132.9103,32.0702 C136.9883,32.0612 139.0273,30.1612 139.0273,26.3712 L139.0273,12.5072 C139.0003,10.0902 137.7023,8.8532 135.1363,8.7962" id="Fill-151"></path>
                <path d="M162.1133,14.5213 C162.1133,13.2983 162.7243,12.6863 163.9473,12.6863 L163.9773,12.6863 C165.2093,12.6953 165.8253,13.3073 165.8253,14.5213 L165.8253,18.5143 L162.1133,18.5143 L162.1133,14.5213 Z M166.5383,22.3783 C168.7803,22.2273 169.9633,21.0913 170.0793,18.9643 L170.0793,14.5213 C170.0793,10.7313 168.0403,8.8353 163.9623,8.8353 C159.8943,8.8353 157.8603,10.7313 157.8603,14.5213 L157.8603,26.3713 C157.8603,30.1703 159.8943,32.0703 163.9623,32.0703 C168.0023,32.0613 170.0383,30.1933 170.0753,26.4723 C169.9543,25.5723 169.3633,25.1093 168.2993,25.0853 L167.6093,25.0853 C166.4093,25.1123 165.8073,25.6953 165.8073,26.8383 L165.8073,26.6373 C165.7193,27.6783 165.1083,28.2063 163.9623,28.2063 C162.7293,28.2063 162.1133,27.5943 162.1133,26.3713 L162.1133,22.3783 L166.5383,22.3783 Z" id="Fill-152"></path>
                <path d="M165.8309,22.396 C165.8329,22.396 165.8339,22.396 165.8359,22.396 L165.8309,22.396 Z" id="Fill-153"></path>
                <path d="M103.3011,8.8357 C101.9481,8.8357 100.8511,9.1257 100.0091,9.7047 L100.0091,4.0907 C99.9411,1.7537 98.6451,0.5567 96.1231,0.4997 L95.7561,0.4867 L95.7561,32.0607 L98.2171,32.0607 C99.3671,32.0347 99.9611,31.4917 100.0091,30.4417 L100.0091,14.5217 C100.0191,13.3067 100.6351,12.6997 101.8581,12.6997 C103.1001,12.6997 103.7221,13.3117 103.7221,14.5347 L103.7221,32.0607 L106.1931,32.0607 C107.2881,32.0357 107.8791,31.5437 107.9751,30.5917 L107.9751,14.4957 C107.9751,10.7447 106.4171,8.8447 103.3011,8.8357" id="Fill-154"></path>
                <path d="M150.5703,19.0523 C147.9153,17.3043 146.5873,15.8283 146.5873,14.6223 L146.5873,14.5213 C146.5873,13.2983 147.1983,12.6863 148.4213,12.6863 L148.4513,12.6863 C149.6053,12.6943 150.2123,13.2393 150.2853,14.3053 L150.2853,14.0643 C150.2853,15.1783 150.8623,15.7563 152.0043,15.8093 L152.8343,15.8093 C153.9223,15.7593 154.4913,15.2263 154.5423,14.2123 C154.4313,10.6313 152.3993,8.8353 148.4363,8.8353 C144.3683,8.8353 142.3343,10.7313 142.3343,14.5213 L142.3343,14.7053 C142.3343,17.1983 143.6613,19.3143 146.3173,21.0533 C148.9723,22.8013 150.2993,24.3283 150.2993,25.6353 L150.2993,26.3713 C150.2993,27.5943 149.6833,28.2063 148.4513,28.2063 C147.2923,28.2063 146.6813,27.6673 146.6033,26.6033 L146.6033,26.8353 C146.6033,25.6933 146.0013,25.1093 144.8013,25.0833 L144.1263,25.0833 C143.0173,25.1073 142.4253,25.6143 142.3413,26.5923 C142.4223,30.2323 144.4553,32.0613 148.4513,32.0703 C152.5193,32.0703 154.5533,30.1703 154.5533,26.3713 L154.5533,25.3033 C154.5533,22.8753 153.2253,20.7913 150.5703,19.0523" id="Fill-155"></path>
                <path d="M154.5529,14.5113 L154.5529,14.5213 C154.5529,14.5183 154.5529,14.5143 154.5529,14.5113" id="Fill-156"></path>
                <path d="M88.1961,18.514 L84.4841,18.514 L84.4841,14.521 C84.4841,13.298 85.0951,12.686 86.3171,12.686 L86.3471,12.686 C87.5801,12.695 88.1961,13.307 88.1961,14.521 L88.1961,18.514 Z M92.4491,18.593 L92.4491,14.521 C92.4491,10.731 90.4101,8.836 86.3321,8.836 C82.2641,8.836 80.2301,10.731 80.2301,14.521 L80.2301,26.371 C80.2301,30.171 82.2641,32.07 86.3321,32.07 C90.2981,32.061 92.3301,30.259 92.4391,26.675 C92.3891,25.686 91.8461,25.156 90.8121,25.083 L89.8311,25.083 C88.7451,25.16 88.1941,25.735 88.1941,26.821 L88.1941,26.394 C88.1861,27.601 87.5661,28.206 86.3321,28.206 C85.1001,28.206 84.4841,27.594 84.4841,26.371 L84.4841,22.378 L88.5751,22.378 C91.1551,22.314 92.4491,21.055 92.4491,18.593 L92.4491,18.593 Z" id="Fill-157"></path>
                <path d="M52.7243,8.774 C50.9393,8.814 49.9083,9.666 49.6243,11.322 L47.5253,25.89 L45.4323,11.366 C45.1643,9.706 44.1523,8.846 42.4023,8.781 C40.6973,8.845 39.6973,9.668 39.3993,11.248 L37.2893,25.89 L35.1283,10.886 C34.7453,9.516 33.7443,8.811 32.1223,8.774 L30.5413,8.774 L31.3833,14.601 L33.8833,29.154 C34.1683,31.047 35.3033,32.024 37.2753,32.1 L37.2873,32.1 C39.2663,32.024 40.4033,31.041 40.6833,29.136 L40.6503,29.362 L42.4153,18.12 L44.2363,29.648 C44.6373,31.213 45.7313,32.031 47.5223,32.1 L47.5333,32.1 C49.5133,32.024 50.6503,31.041 50.9303,29.136 L53.4473,14.629 L54.2893,8.774 L52.7243,8.774 Z" id="Fill-158"></path>
                <path d="M64.9147,26.3708 C64.9147,27.5948 64.2987,28.2058 63.0657,28.2058 C61.8237,28.2058 61.2027,27.5948 61.2027,26.3708 L61.2027,24.1858 C61.2027,22.9628 61.8237,22.3508 63.0657,22.3508 C64.2887,22.3508 64.9047,22.9578 64.9147,24.1718 L64.9147,26.3708 Z M63.0657,8.8358 C59.1107,8.8358 57.0797,10.6238 56.9607,14.1888 C57.0097,15.2368 57.6037,15.7788 58.7527,15.8048 L59.4217,15.8048 C60.6217,15.7778 61.2237,15.1948 61.2237,14.0518 L61.2237,14.2118 C61.3247,13.2068 61.9307,12.6938 63.0507,12.6858 L63.0807,12.6858 C64.3037,12.6858 64.9147,13.2978 64.9147,14.5208 L64.9147,18.2678 C64.3607,18.1678 63.7557,18.1148 63.0947,18.1148 C61.4477,18.1148 60.1367,18.4278 59.1577,19.0488 C57.6847,19.8678 56.9487,21.5798 56.9487,24.1858 L56.9487,26.3708 C56.9487,30.1608 58.9877,32.0608 63.0657,32.0698 C67.1337,32.0698 69.1677,30.1708 69.1677,26.3708 L69.1677,14.5208 C69.1677,10.7308 67.1337,8.8358 63.0657,8.8358 L63.0657,8.8358 Z" id="Fill-159"></path>
            </g>
            <g id="Group" transform="translate(68.000000, 0.000000)">
                <path d="M13.7823979,39.1631417 L27.8459894,39.1631417 L27.8459894,23.8469938 L13.7823979,23.8469938 L13.7823979,39.1631417 Z M6.75,46.125 L34.875,46.125 L34.875,16.875 L6.75,16.875 L6.75,46.125 Z" id="Fill-7" fill="#FCCC27"></path>
                <polyline id="Fill-8" fill="#1DA452" points="28.125 16.875 13.8757628 16.875 13.8757628 23.9062312 21.0015256 23.9062312 21.0015256 32.3437688 6.75 32.3437688 6.75 39.375 28.125 39.375"></polyline>
                <polygon id="Fill-9" fill="#008ED8" points="7.13435597 17.8317985 7.12444068 17.8317985 7.12444068 10.3053664 21.375 10.3053664 21.375 3.375 0 3.375 0 39.375 7.13435597 39.375"></polygon>
                <path d="M29.8125,0 C28.7919702,3.10568969 26.5135949,5.58474234 23.625,6.75 C26.5135949,7.91518086 28.7919702,10.3942335 29.8125,13.5 C30.8330298,10.3942335 33.1113327,7.91518086 36,6.75 C33.1113327,5.58474234 30.8330298,3.10568969 29.8125,0" id="Fill-10" fill="#FCCC27"></path>
                <polygon id="Fill-12" fill="#1DA452" points="6.75 39.375 28.125 39.375 28.125 32.625 6.75 32.625"></polygon>
            </g>
        </g>
    </g>
</svg>