<svg width="504" height="56" viewBox="0 0 504 56" fill="none" xmlns="http://www.w3.org/2000/svg">
<path fill-rule="evenodd" clip-rule="evenodd" d="M0 56H80V0H0V56Z" fill="#142280"/>
<path fill-rule="evenodd" clip-rule="evenodd" d="M49.0024 19.5976L62.0711 38.496L63.6777 36.4006H80V19.5976H49.0024ZM0 19.5976V36.4006H16.3223L17.9289 38.496L30.9976 19.5976H0Z" fill="#E50012"/>
<path fill-rule="evenodd" clip-rule="evenodd" d="M48.931 23.7155L40.0015 35.4762L31.072 23.7155L26.326 27.4197C26.326 27.4197 35.744 39.6769 37.4763 41.7348C38.1993 42.5916 39.0594 43.0519 40.0015 43.0519C40.9409 43.0519 41.8023 42.5916 42.524 41.7348C44.2563 39.6769 53.6743 27.4197 53.6743 27.4197L48.931 23.7155Z" fill="white"/>
<path fill-rule="evenodd" clip-rule="evenodd" d="M40.004 14.7123L59.0429 43.0508L63.4408 38.2824L42.4593 7.89716C41.8962 7.11154 40.979 6.64859 40.004 6.64859C39.0182 6.64859 38.101 7.11154 37.546 7.89716L16.5604 38.2824L20.9623 43.0508L40.004 14.7123Z" fill="white"/>
<path fill-rule="evenodd" clip-rule="evenodd" d="M40.0004 47.6022C26.1348 47.6022 14.8575 38.8121 14.8575 28.0017C14.8575 17.1913 26.1348 8.39927 40.0004 8.39927C53.8647 8.39927 65.1434 17.1913 65.1434 28.0017C65.1434 38.8121 53.8647 47.6022 40.0004 47.6022ZM40.0004 5.60052C24.2218 5.60052 11.4272 15.6299 11.4272 28.0017C11.4272 40.3735 24.2218 50.4036 40.0004 50.4036C55.7804 50.4036 68.5716 40.3735 68.5716 28.0017C68.5716 15.6299 55.7804 5.60052 40.0004 5.60052Z" fill="white"/>
<path fill-rule="evenodd" clip-rule="evenodd" d="M367.236 3.26017L367.128 3.15963C366.603 2.80095 365.974 2.6155 365.288 2.54349H365.21H365.116C364.338 2.6155 363.674 2.85937 363.161 3.30297L363.053 3.40351C362.584 3.91843 362.325 4.57873 362.276 5.40954V43.9984C362.276 44.7993 362.181 45.4019 362.001 45.8027C361.843 46.1899 361.555 46.6783 361.172 46.7795C359.303 47.2809 356.334 47.0363 352.446 46.0893H352.41C350.673 45.7891 349.368 46.376 348.719 47.753L348.66 47.9099C348.459 48.613 348.531 49.329 348.877 49.9744L348.949 50.1014C349.352 50.6748 350.001 51.0912 350.911 51.3486H350.954C354.416 52.0945 357.112 52.4818 359.002 52.5245H359.009C362.621 52.5245 365.232 51.5348 366.775 49.5865C367.684 48.2971 368.145 46.535 368.202 44.1417V5.43875C368.202 4.54952 367.856 3.7751 367.236 3.26017Z" fill="#142280"/>
<path fill-rule="evenodd" clip-rule="evenodd" d="M350.045 41.6627C350.577 42.0207 351.199 42.2068 351.876 42.2652L351.97 42.2781L352.049 42.2652C352.836 42.2068 353.491 41.9786 354.025 41.5037C354.639 40.9752 354.969 40.23 354.969 39.4257V7.50028C354.969 6.72789 354.645 6.02479 354.025 5.48066L353.895 5.39302C353.347 5.03502 352.728 4.82035 352.006 4.77756H351.977C351.177 4.77756 350.499 5.00853 349.879 5.48066C349.316 5.95346 349.034 6.62735 349.034 7.50028V39.4257C349.034 40.2592 349.338 40.9752 349.879 41.5037L350.045 41.6627Z" fill="#142280"/>
<path fill-rule="evenodd" clip-rule="evenodd" d="M343.792 16.4269H333.314V9.67854C343.265 8.77641 344.398 7.84574 344.78 6.82675C345.018 6.26903 345.089 5.63794 344.974 4.979L344.946 4.86487C344.729 4.13257 344.254 3.56058 343.569 3.20122L343.437 3.15978C343.049 3.00218 342.644 2.93085 342.169 2.93085C341.954 2.93085 341.723 2.94375 341.463 2.97297L341.376 3.00218C336.394 4.11966 328.288 4.92126 317.284 5.40901C316.432 5.40901 315.719 5.68074 315.134 6.26903C314.682 6.77105 314.413 7.35663 314.349 8.09029V8.13241C314.349 8.92042 314.659 9.60722 315.242 10.1228L315.35 10.1941C315.908 10.5678 316.541 10.7668 317.35 10.8252H317.363H317.378C320.182 10.7111 323.551 10.525 327.393 10.2234V16.4269H315.908C315.115 16.4269 314.421 16.6586 313.859 17.0886L313.693 17.2319C313.239 17.7625 312.971 18.348 312.907 19.0776V19.1068C312.907 19.8826 313.217 20.5823 313.794 21.1421C314.277 21.5721 314.954 21.8004 315.908 21.8588H325.879C323.191 26.6724 319.743 31.245 315.647 35.4432C314.01 36.8629 313.267 37.9933 313.282 39.0836V39.1264C313.354 39.8852 313.744 40.5455 314.442 41.0741L314.465 41.0897C315.049 41.4613 315.647 41.663 316.268 41.663C316.397 41.663 316.541 41.663 316.628 41.6338C318.143 41.4905 320.723 39.9858 327.393 29.9685V50.6192C327.393 51.4629 327.675 52.166 328.238 52.6966L328.403 52.8399C328.93 53.1979 329.55 53.3969 330.242 53.4554H330.402H330.409C331.209 53.3969 331.872 53.1558 332.369 52.6966C332.981 52.166 333.314 51.4493 333.314 50.6192V28.3069C336.292 31.4467 338.846 34.2965 340.914 36.7909C341.477 37.42 342.084 37.8235 342.717 37.9797L342.92 38.009C343.569 38.0647 344.247 37.8792 344.946 37.4784C345.645 37.0613 346.078 36.4458 346.222 35.687L346.243 35.5573C346.286 34.7849 346.345 33.9969 334.266 21.8588H343.792C344.635 21.8588 345.348 21.5721 345.919 21.0123L345.948 20.9988C346.41 20.4852 346.655 19.8826 346.727 19.1653V19.1068C346.727 18.348 346.43 17.6606 345.84 17.0886C345.342 16.6586 344.65 16.4269 343.792 16.4269Z" fill="#142280"/>
<path fill-rule="evenodd" clip-rule="evenodd" d="M387.058 16.3554C387.037 16.2284 387.058 16.0422 387.153 15.9132C387.347 15.7698 387.665 15.6849 388.119 15.6557H404.82V35.316H388.097C387.614 35.316 387.347 35.2147 387.244 35.1434C387.153 35.0293 387.029 34.8139 387.058 34.2121V16.3853V16.3554ZM428.745 16.4729V34.2121C428.745 34.5408 428.665 34.7847 428.472 34.9709C428.212 35.1991 427.83 35.316 427.296 35.316H410.992V15.6557H427.332H427.512C427.996 15.6557 428.371 15.7556 428.558 15.8989C428.66 15.9716 428.731 16.1856 428.745 16.4729ZM434.674 15.4689C434.622 14.0362 434.153 12.7604 433.26 11.7564L433.245 11.7279C432.25 10.7401 430.88 10.2395 429.164 10.2395H410.992V4.85043C410.992 3.94693 410.603 3.18881 409.888 2.62837L409.868 2.61479C409.311 2.25746 408.67 2.05503 407.877 2C407.084 2 406.362 2.25746 405.705 2.7425C405.188 3.2024 404.892 3.90482 404.82 4.85043V10.2395H387.065C385.306 10.2395 383.843 10.7109 382.725 11.6273L382.695 11.6566C381.701 12.6042 381.181 13.9071 381.124 15.5124L381.139 35.7297C381.08 37.1623 381.621 38.3967 382.739 39.3545C383.72 40.201 385.134 40.6602 387.065 40.7315H404.82V51.0619C404.82 51.9512 405.151 52.6971 405.771 53.2405C406.348 53.7425 407.062 54 407.897 54H407.934H407.964C408.721 53.9443 409.377 53.6997 409.968 53.2405C410.638 52.6808 410.992 51.9084 410.992 51.0619V40.7315H429.164C430.685 40.7315 432.013 40.273 433.13 39.3545C434.153 38.4816 434.68 37.2765 434.68 35.7725L434.674 15.4689Z" fill="#142280"/>
<path fill-rule="evenodd" clip-rule="evenodd" d="M477.874 34.2975C477.952 35.4727 478.543 36.1045 478.877 36.3327C479.365 36.7757 480.058 36.991 480.945 36.991H480.988H480.995C481.817 36.9353 482.51 36.633 483.108 36.0461L483.13 36.0169C483.619 35.4727 483.852 34.7696 483.793 33.9551C483.259 22.7782 481.501 12.9335 478.559 4.69404C478.299 3.97735 477.802 3.404 477.08 3.00388C476.425 2.65879 475.645 2.58678 474.845 2.80213C474.022 3.03038 473.415 3.4468 473.085 4.02015C472.803 4.40736 472.436 5.22459 472.891 6.37128C475.752 14.2949 477.433 23.6804 477.874 34.2975Z" fill="#142280"/>
<path fill-rule="evenodd" clip-rule="evenodd" d="M454.986 11.6003C454.482 11.0405 453.739 10.7538 452.802 10.7538H452.774C452.009 10.7831 451.359 11.0405 450.846 11.4569C450.466 11.7436 449.824 12.4019 449.902 13.662C450.155 22.7187 448.591 32.9778 445.274 44.1839C444.942 45.2878 445.252 46.0466 445.576 46.4766C445.93 47.1376 446.556 47.5221 447.465 47.7103L447.61 47.7239H447.754H447.926C448.496 47.7239 449.037 47.6227 449.549 47.4236L449.73 47.336L449.773 47.3074C450.35 46.9359 450.783 46.3489 451.043 45.5609C454.432 33.7815 456.032 23.0054 455.822 13.4766C455.758 12.7735 455.491 12.1444 454.986 11.6003Z" fill="#142280"/>
<path fill-rule="evenodd" clip-rule="evenodd" d="M494.785 34.3261L494.569 34.1535C494.028 33.7955 493.4 33.5802 492.651 33.5381C491.835 33.5381 491.15 33.7955 490.603 34.2969C490.104 34.6977 489.6 35.1569 489.6 43.1253C489.6 44.988 489.232 46.2325 488.56 46.7502C488.374 46.793 488.18 46.8643 487.984 46.9648C486.174 47.581 483.218 47.8969 479.18 47.8969C476.511 47.8969 473.346 47.7535 469.799 47.4798C469.431 47.4377 469.192 47.4241 468.976 47.3792C468.104 47.2807 467.455 47.0369 467.029 46.6789C466.675 46.3759 466.503 45.7896 466.531 44.9296V9.29172C466.531 8.38958 466.206 7.63078 465.587 7.10023L465.472 7.01531C464.938 6.64101 464.317 6.45555 463.64 6.38354H463.547H463.474C462.681 6.45555 462.024 6.69943 461.499 7.17156L461.405 7.24357C460.936 7.74491 460.676 8.41879 460.611 9.2496V45.2455C460.611 48.011 461.591 50.1468 463.568 51.5639C464.7 52.3097 467.527 53.1691 479.239 53.3124H479.771C484.84 53.3124 488.8 52.8111 491.552 51.8369C492.953 51.3064 494.034 50.3886 494.771 49.0429C495.267 48.1408 495.541 46.9648 495.564 45.575C495.541 44.3141 495.541 41.2334 495.564 36.4333C495.564 35.6154 495.319 34.9123 494.785 34.3261Z" fill="#142280"/>
<path fill-rule="evenodd" clip-rule="evenodd" d="M503.985 43.5683C502.746 30.9716 500.15 19.9673 496.284 10.8678C496.04 10.1382 495.548 9.56483 494.834 9.17762L494.647 9.0927C494.021 8.87804 493.444 8.84883 492.577 9.03428C491.726 9.24895 491.114 9.72175 490.717 10.4541C490.443 11.0539 490.415 11.7862 490.66 12.6163L490.717 12.7468C494.496 21.5725 496.977 32.1047 498.072 44.0832C498.137 45.0009 498.548 45.7312 499.262 46.219C499.774 46.5641 500.38 46.7339 501.043 46.7339H501.317L501.476 46.7074C502.225 46.5641 502.846 46.2482 503.336 45.7604L503.438 45.6463C503.87 45.1022 504.056 44.4147 503.985 43.5683Z" fill="#142280"/>
<path fill-rule="evenodd" clip-rule="evenodd" d="M150.613 20.0683H117.623C118.829 19.4243 120.14 18.7069 121.597 17.8904C126.227 15.0406 129.861 12.3729 132.392 10.0245C132.795 9.60876 133.198 9.42262 133.624 9.42262H133.697C133.756 9.42262 134.05 9.45183 134.605 9.89407C138.102 13.0054 143.475 16.4142 150.613 20.0683ZM163.233 19.626C162.916 18.8502 162.246 18.3204 161.214 18.0486C155.922 16.0861 151.429 14.1222 147.866 12.1868C144.08 9.96608 140.518 7.41591 137.266 4.65175C136.286 3.80532 135.053 3.37531 133.611 3.37531C132.212 3.37531 130.927 3.84743 129.789 4.76588C123.68 10.3676 115.705 14.9822 106.093 18.4637C105.177 18.7796 104.528 19.3394 104.174 20.1396L104.161 20.1688C103.908 20.9147 103.951 21.6443 104.305 22.3909C104.579 23.2801 105.249 23.9078 106.137 24.1238C106.403 24.2237 106.698 24.2672 107.022 24.2672C108.176 24.2672 110.002 23.6938 112.597 22.5342C112.583 22.5899 112.575 22.6483 112.568 22.7068V22.7482C112.568 23.5077 112.872 24.2114 113.463 24.7834C113.953 25.2134 114.623 25.4125 115.567 25.4709H130.913V33.3232H115.323C114.545 33.3232 113.853 33.5385 113.276 33.9814L113.116 34.1248C112.655 34.6424 112.395 35.2443 112.323 35.9746V36.0038C112.323 36.7755 112.64 37.4657 113.217 38.0227C113.715 38.4684 114.371 38.6966 115.323 38.7394H130.913V47.2099H108.35C107.563 47.2099 106.871 47.4245 106.288 47.881L106.18 47.9687L106.144 48.0108C105.682 48.5257 105.429 49.1283 105.357 49.8606V49.8871C105.357 50.6622 105.652 51.349 106.252 51.9223C106.742 52.3523 107.412 52.5833 108.35 52.6254H159.116C159.96 52.6254 160.659 52.3523 161.243 51.779L161.257 51.7661C161.711 51.2641 161.971 50.6622 162.043 49.9319V49.8871C162.043 49.1147 161.748 48.4279 161.158 47.8545C160.666 47.4245 159.974 47.2099 159.116 47.2099H136.834V38.7394H152.619C153.455 38.7394 154.169 38.4527 154.746 37.9086L154.768 37.8794C155.222 37.3645 155.481 36.7626 155.546 36.0459V36.0038C155.546 35.2287 155.258 34.5412 154.651 33.9679C154.147 33.5385 153.462 33.3232 152.619 33.3232H136.834V25.4709H152.619C153.455 25.4709 154.176 25.1985 154.746 24.6401L154.768 24.6116C155.222 24.1096 155.481 23.5077 155.546 22.7917V22.7482C155.546 22.6341 155.546 22.505 155.533 22.3909C158.784 23.7645 160.024 23.9513 160.745 23.9513C160.912 23.9513 161.085 23.937 161.272 23.8956L161.424 23.8664C162.144 23.6089 162.692 23.0641 163.154 22.1762C163.514 21.3454 163.544 20.4847 163.233 19.626Z" fill="#142280"/>
<path fill-rule="evenodd" clip-rule="evenodd" d="M206.175 52.4951H198.251C196.765 52.4951 195.568 51.5209 195.568 50.0461C195.568 48.5706 196.765 47.5809 198.251 47.5809H204.835C206.428 47.5809 207.215 46.9939 207.215 45.2589V31.6032C207.215 30.1277 208.411 28.9389 209.905 28.9389C211.39 28.9389 212.587 30.1277 212.587 31.6032V46.1475C212.587 49.6582 209.717 52.4951 206.175 52.4951Z" fill="#142280"/>
<path fill-rule="evenodd" clip-rule="evenodd" d="M182.501 46.2474C186.395 46.2474 189.034 43.8541 189.221 40.9032H175.851C174.373 40.9032 173.176 42.1049 173.176 43.5675C173.176 45.043 174.373 46.2474 175.851 46.2474H182.508H182.501Z" fill="#142280"/>
<path fill-rule="evenodd" clip-rule="evenodd" d="M191.127 21.4418H179.763V15.8992H191.127V21.5423V21.4418Z" fill="#142280"/>
<path fill-rule="evenodd" clip-rule="evenodd" d="M191.127 33.7233H179.763V28.1773H191.127V33.8374V33.7233Z" fill="#142280"/>
<path fill-rule="evenodd" clip-rule="evenodd" d="M182.558 42.7515H177.179V7.3154H182.45V42.7515H182.558Z" fill="#142280"/>
<path fill-rule="evenodd" clip-rule="evenodd" d="M218.32 53.4421C216.835 53.4421 215.63 52.2505 215.63 50.775V31.6032C215.63 30.1277 216.835 28.9389 218.32 28.9389C219.798 28.9389 220.995 30.1277 220.995 31.6032V50.775C220.995 52.2505 219.798 53.4421 218.32 53.4421Z" fill="#142280"/>
<path fill-rule="evenodd" clip-rule="evenodd" d="M189.188 3.80435H175.869C174.376 3.80435 173.179 5.00879 173.179 6.48427C173.179 7.95976 174.376 9.14857 175.869 9.14857H187.847V50.8052C187.847 52.2671 189.043 53.4559 190.528 53.4559C192.007 53.4559 193.226 52.2671 193.226 50.8052V7.81642C193.226 5.59572 191.416 3.80435 189.188 3.80435Z" fill="#142280"/>
<path fill-rule="evenodd" clip-rule="evenodd" d="M207.826 38.6831H201.654V31.6032C201.654 30.1277 200.457 28.9389 198.963 28.9389C197.485 28.9389 196.281 30.1277 196.281 31.6032V39.8135C196.281 42.0213 198.091 43.8127 200.319 43.8127H207.616C209.093 43.8127 210.509 42.8385 210.509 41.3474C210.509 39.8855 209.304 38.6831 207.826 38.6831Z" fill="#142280"/>
<path fill-rule="evenodd" clip-rule="evenodd" d="M231.927 39.8135V31.6032C231.927 30.1277 230.722 28.9389 229.244 28.9389C227.759 28.9389 226.562 30.1277 226.562 31.6032V38.6831H220.389C218.903 38.6831 217.706 39.8848 217.706 41.3474C217.706 42.8385 218.903 43.8127 220.389 43.8127H227.889C230.124 43.8127 231.927 42.0213 231.927 39.8135Z" fill="#142280"/>
<path fill-rule="evenodd" clip-rule="evenodd" d="M210.495 22.1591H204.136L211.54 16.0859C212.262 15.4834 212.737 14.5086 212.428 13.6336C212.111 12.7607 211.367 12.1744 210.429 12.1744H203.515L209.384 7.10056C210.459 6.16853 210.777 4.55038 209.846 3.48928C208.909 2.43022 207.387 2.31338 206.313 3.24405L196.066 12.1017C194.991 13.0331 194.876 14.6369 195.813 15.7116C196.325 16.2999 197.025 16.5873 197.761 16.5873H204.352C204.352 16.5873 198.38 21.4302 197.069 22.5633C196.391 23.1359 196.015 23.9246 196.015 24.7126C196.015 26.1297 197.069 27.275 198.487 27.275H210.495C211.924 27.275 213.077 26.1297 213.077 24.7126C213.077 23.3058 211.924 22.1591 210.495 22.1591Z" fill="#142280"/>
<path fill-rule="evenodd" clip-rule="evenodd" d="M229.952 22.1591H223.584L230.99 16.0859C231.711 15.4834 232.188 14.5086 231.87 13.6336C231.552 12.7607 230.818 12.1744 229.88 12.1744H222.971L228.827 7.10056C229.9 6.16853 230.218 4.55038 229.281 3.48928C228.35 2.43022 226.829 2.31338 225.753 3.24405L215.507 12.1017C214.433 13.0331 214.324 14.6369 215.255 15.7116C215.76 16.2999 216.481 16.5873 217.202 16.5873H223.793C223.793 16.5873 217.822 21.4302 216.51 22.5633C215.832 23.1359 215.465 23.9246 215.465 24.7126C215.465 26.1297 216.517 27.275 217.93 27.275H229.952C231.372 27.275 232.519 26.1297 232.519 24.7126C232.519 23.3058 231.372 22.1591 229.952 22.1591Z" fill="#142280"/>
<path fill-rule="evenodd" clip-rule="evenodd" d="M251.093 21.2862C250.552 20.899 249.903 20.683 249.146 20.683C248.418 20.7264 247.782 20.9696 247.278 21.4295L247.241 21.4418C246.766 21.9445 246.537 22.6041 246.537 23.3934C246.176 31.4176 245.497 37.8229 244.495 42.4348C244.351 43.2099 244.495 43.913 244.921 44.5285L245 44.6134C245.438 45.0013 245.908 45.1868 246.615 45.3729L246.701 45.3885H246.925C247.559 45.3885 248.143 45.2452 248.67 44.9721L248.714 44.9429C249.71 44.1841 251.122 41.1319 251.879 23.2066C251.879 22.4193 251.705 21.8718 251.152 21.3446L251.093 21.2862Z" fill="#142280"/>
<path fill-rule="evenodd" clip-rule="evenodd" d="M247.552 7.77454C248.027 8.27588 248.749 8.53334 249.693 8.53334H263.604C264.469 8.53334 265.183 8.24667 265.701 7.70321C266.164 7.21478 266.438 6.61222 266.482 5.92475V5.89554C266.482 5.12383 266.206 4.47847 265.673 4.00635C265.213 3.58992 264.512 3.36167 263.604 3.33246H249.693C248.827 3.33246 248.122 3.57633 247.559 4.06205L247.53 4.09126C247.069 4.5926 246.801 5.17953 246.759 5.89554C246.759 6.67064 247.025 7.31532 247.552 7.77454Z" fill="#142280"/>
<path fill-rule="evenodd" clip-rule="evenodd" d="M265.531 23.1777C265.481 22.4461 265.192 21.8306 264.651 21.3571C264.219 21.012 263.648 20.8266 262.963 20.8266C262.892 20.8266 262.819 20.8266 262.74 20.8558C262.127 20.885 261.681 21.1431 261.154 21.6024C260.692 22.0317 260.483 22.6478 260.541 23.3774L261.262 39.3279C261.305 40.0575 261.565 40.6729 262.048 41.1322L262.121 41.1906C262.589 41.4773 263.065 41.6206 263.793 41.6206C264.537 41.6206 265.143 41.4059 265.559 40.9888C266.058 40.5588 266.296 39.9141 266.244 39.1261L265.531 23.1777Z" fill="#142280"/>
<path fill-rule="evenodd" clip-rule="evenodd" d="M267.614 17.6738C268.098 17.1881 268.342 16.5855 268.4 15.8994V15.8532C268.4 15.0822 268.126 14.5503 267.594 14.0788C267.116 13.6617 266.44 13.4335 265.516 13.4043H247.546C246.688 13.4043 245.96 13.6481 245.404 14.1345L245.367 14.1631C244.898 14.6522 244.639 15.1379 244.604 15.8532C244.604 16.6412 244.863 17.273 245.39 17.7329C245.865 18.2336 246.587 18.4788 247.546 18.4788H253.754V49.9579C253.754 50.8043 253.921 51.521 254.49 52.0515L254.525 52.0807C255.074 52.4815 255.507 52.6962 256.272 52.739H256.286H256.3C257.166 52.6962 257.62 52.4523 258.082 52.0087C258.701 51.4626 258.888 50.7751 258.888 49.9579V18.4788H265.516C266.388 18.4788 267.095 18.2186 267.614 17.6738Z" fill="#142280"/>
<path fill-rule="evenodd" clip-rule="evenodd" d="M294.18 18.3904C294.159 18.6778 294.101 18.8917 293.987 19.0229C293.798 19.1492 293.524 19.2368 293.193 19.2511H276.7C276.375 19.2511 276.247 19.2076 276.189 19.1954C276.109 19.0643 276.031 18.8211 276.008 18.4617V15.7696C276.008 15.5828 276.045 15.4951 276.074 15.4686L276.203 15.3253C276.224 15.3253 276.319 15.2812 276.52 15.2812L293.2 15.2961C293.711 15.2961 293.964 15.381 294.029 15.4394C294.18 15.597 294.18 15.6969 294.18 15.7696V18.3904ZM294.065 10.4532H276.231C274.753 10.4532 273.484 10.9267 272.525 11.799C271.436 12.6875 270.895 13.9191 270.939 15.3518V19.137C270.895 20.4134 271.3 21.573 272.15 22.5472C273.002 23.5356 274.356 24.0661 276.231 24.094H293.898C295.385 24.094 296.668 23.6375 297.736 22.6769C298.687 21.7286 299.185 20.6695 299.235 19.3095V15.3104C299.185 13.9347 298.687 12.7595 297.736 11.8282C296.806 10.9097 295.58 10.4532 294.065 10.4532Z" fill="#142280"/>
<path fill-rule="evenodd" clip-rule="evenodd" d="M270.894 8.59171H298.655C299.479 8.59171 300.17 8.30504 300.719 7.73169L300.747 7.71607C301.196 7.20114 301.432 6.72902 301.498 6.01233V5.9675C301.498 5.19511 301.216 4.52122 300.639 3.93497C300.142 3.48865 299.479 3.28961 298.655 3.28961H270.894C270.13 3.28961 269.467 3.48865 268.904 3.93497L268.746 4.09121C268.298 4.60614 268.053 5.20869 267.996 5.941V5.9675C267.996 6.72902 268.291 7.31527 268.847 7.88862C269.33 8.30504 269.972 8.53329 270.894 8.59171Z" fill="#142280"/>
<path fill-rule="evenodd" clip-rule="evenodd" d="M282.095 40.9465V46.2486H274.573C274.061 46.2486 273.701 46.1344 273.463 45.9035C273.268 45.7173 273.19 45.4748 273.19 45.1447V40.9465H282.095ZM282.095 30.8864V36.2021H273.19V31.7043C273.196 31.3748 273.298 31.1866 273.347 31.1309C273.534 30.9876 273.91 30.8864 274.357 30.8864H282.095ZM296.61 40.9465V45.1447C296.61 45.4748 296.524 45.7173 296.322 45.9035C296.091 46.1344 295.73 46.2486 295.226 46.2486H287.156V40.9465H296.61ZM287.156 36.2021V30.8864H295.262H295.429C295.881 30.8864 296.242 30.9876 296.422 31.1146C296.51 31.1866 296.596 31.3748 296.61 31.7043V36.2021H287.156ZM301.795 31.1602C301.745 29.7112 301.282 28.4639 300.432 27.4477L300.418 27.4184C299.444 26.4443 298.11 25.943 296.452 25.943H273.117C271.444 25.943 270.118 26.4443 269.151 27.4184L269.122 27.4477C268.271 28.4639 267.824 29.7112 267.766 31.1866V46.2486C267.766 47.7533 268.271 48.9421 269.273 49.8306C270.347 50.7463 271.646 51.2056 273.117 51.2056H296.452C297.923 51.2056 299.221 50.7463 300.303 49.8306C301.29 48.9421 301.795 47.7533 301.795 46.2486V31.1602Z" fill="#142280"/>
</svg>
